<svg width="1600" height="465" viewBox="0 0 1600 465" fill="none" xmlns="http://www.w3.org/2000/svg">
<path d="M-7.2986 262.212C-32.0945 275.172 -60.5581 292.866 -88.6028 299.187C-93.327 300.252 -102.683 301.965 -102.985 297.133C-103.894 282.591 -62.8892 250.638 -57.1965 245.485C-17.1659 209.246 26.6627 179.084 73.125 151.579C144.003 109.619 217.483 70.2346 295.611 43.4405C348.904 25.1634 397.521 13.4059 453.816 8.07905C516.46 2.15154 595.351 0.85068 649.005 41.533C699.339 79.6973 671.059 175.577 628.753 207.922C568.544 253.955 497.013 257.862 424.171 259.424C381.465 260.34 338.352 261.427 296.491 251.354C288.663 249.47 239.799 240.012 239.402 225.53C239.099 214.451 268.472 197.218 270.075 196.184C302.118 175.515 336.151 161.809 373.686 154.807C410.795 147.885 482.177 139.054 506.356 180.044C523.897 209.782 493.972 262.784 472.161 282.167C440.517 310.289 390.5 328.951 348.15 324.571C334.907 323.201 322.753 317.466 338.171 305.643C367.79 282.93 422.404 278.982 454.991 295.372C481.09 308.499 534.293 349.801 502.687 382.529C471.028 415.312 415.786 429.149 372.366 435.351C365.07 436.393 357.267 439.952 350.352 437.405C341.4 434.108 366.839 427.629 375.741 424.199C479.079 384.379 590.52 360.127 700.077 345.847C728.551 342.135 757.344 340.025 786.078 340.564C810.369 341.021 841.554 340.969 864.447 350.982C894.38 364.075 884.995 390.535 862.832 404.098C844.408 415.372 834.333 418.573 811.76 423.172C758.942 433.933 703.335 437.863 649.592 440.339C626.408 441.408 593.171 444.893 572.104 430.509C554.001 418.148 563.366 399.872 572.691 384.289C624.888 297.06 720.708 251.38 808.972 209.096C893.559 168.573 975.741 140.087 1068.44 124.581C1156.46 109.857 1248.87 97.4151 1338.33 96.9961C1376.68 96.8165 1399.85 100.164 1436.51 108.001C1468.7 114.881 1504.27 121.365 1518.7 155.394C1558.78 249.961 1455.18 322.317 1383.09 359.346C1334.5 384.304 1285.61 396.474 1232.52 408.646C1153.34 426.799 1072.42 441.639 992.126 454.132C976.382 456.581 950.411 462.149 933.13 459.12C923.517 457.436 945.279 443.494 953.235 437.845C1042.67 374.353 1136.9 317.7 1229.29 258.69C1351.29 180.767 1472.68 104.508 1600 35.6639" stroke="url(#paint0_linear_2_836)" stroke-width="10" stroke-linecap="round"/>
<defs>
<linearGradient id="paint0_linear_2_836" x1="-103" y1="232.5" x2="1600" y2="232.5" gradientUnits="userSpaceOnUse">
<stop stop-color="#E33E10"/>
<stop offset="1" stop-color="#FDDB00"/>
</linearGradient>
</defs>
</svg>
