<svg width="205" height="69" viewBox="0 0 205 69" fill="none" xmlns="http://www.w3.org/2000/svg">
<path d="M185.15 23.6153C182.508 20.9841 178.979 18.8734 175.271 17.1295C160.173 10.0279 142.562 5.43993 125.8 3.14238C103.695 0.112609 80.0237 1.69623 59.1267 4.38985C40.2844 6.81862 23.9188 13.4234 10.3319 22.4997C4.06287 26.6876 -2.00272 34.1234 3.20428 41.5073C5.77501 45.1528 11.3741 46.9541 15.9122 48.3922C20.236 49.7624 36.9156 53.8967 41.0736 54.7926C63.4318 59.6102 86.2466 60.9887 108.612 61.5319C135.472 62.1842 163.21 62.6102 185.18 52.4797C194.374 48.24 201.028 43.5162 203.069 35.123C204.823 27.9116 200.956 23.3942 193.241 18.0705C183.674 11.4683 172.931 8.33126 161.115 5.39263C142.438 0.747791 127.05 1.24038 109.002 3.84446C80.1967 8.00046 50.853 14.4694 27.4619 26.6073C20.1822 30.3848 14.289 34.4528 18.3378 41.8977C21.1995 47.1599 26.0316 49.5003 32.8921 51.6867C67.5929 62.7455 106.05 63.2026 141.536 67.1679" stroke="#E33E10" stroke-width="2.32268" stroke-linecap="round"/>
</svg>
