<svg width="195" height="49" viewBox="0 0 195 49" fill="none" xmlns="http://www.w3.org/2000/svg">
<path d="M28.75 5.05C26.4 11.95 21.6 25.8 18.8 33.85C17.9 36 17.25 38 15 38C12.75 38 12.05 35.8 11.3 33.55C8.75 26.05 4.15 12.75 1.6 5.4C1.15 3.9 0.9 1.75 2.3 1.45C4.35 0.949997 4.75 2.15 5.25 3.85C11.2 23.2 12.55 26.75 15.25 26.75C17.95 26.75 19.4 23.1 25.1 3.85C25.6 2.15 26.15 1.15 28.05 1.45C29.3 1.6 29.2 3.65 28.75 5.05ZM59.0766 24.3C59.0766 32.8 55.9766 38.65 46.0766 38.65C35.5266 38.6 32.8266 33.15 32.8266 24.4C32.8266 16 35.4266 10.2 45.9766 10.2C56.0266 10.2 59.0266 15.9 59.0766 24.3ZM55.6266 24.3C55.5266 17.85 53.0766 11.45 46.0766 11.55C38.4766 11.65 36.3266 17.95 36.3266 24.4C36.3266 30.9 38.0766 37.2 46.0766 37.3C53.4266 37.35 55.6766 30.75 55.6266 24.3ZM85.3199 13.95C82.0699 23.25 77.8199 34.75 75.2199 41.7C73.5199 46.25 72.7699 48.85 68.0699 48.85C66.3199 48.85 65.1699 48.65 65.1699 47.25C65.2199 45.95 66.4699 46 68.1699 45.95C70.9199 45.9 73.4699 43.05 71.0699 36.5C68.8199 30.2 64.7199 20 62.4699 13.55C62.0199 12.4 62.9199 10.9 64.0699 10.9C65.5699 10.9 65.8699 11.95 66.3699 13.5C70.4199 25.95 72.3199 29.1 74.3699 29.1C76.1699 29.1 78.0699 25.5 81.8199 13.85C82.3699 12.25 82.4199 10.85 83.9199 10.95C85.1199 11.1 85.7199 12.75 85.3199 13.95ZM112.286 36.8C111.936 38 110.686 38.4 109.886 37.9C107.986 36.75 107.336 35.85 105.136 36C102.036 36.2 99.8359 38.65 96.4859 38.65C92.2859 38.65 88.4859 36.6 88.4859 31.2C88.3859 19.15 104.686 26.6 107.386 18.25C107.936 16.55 106.936 14.45 105.036 13.3C103.786 12.5 101.886 12.3 100.386 12.3C93.8359 12.3 94.3359 17 91.6859 17.35C90.2859 17.55 89.8359 17 90.0359 15.9C90.7859 12.1 95.7359 10 100.286 10.2C105.386 10.35 110.736 11.15 110.886 18.35C110.986 23.1 110.736 26.75 110.886 31.5C110.886 34.1 112.786 34.95 112.286 36.8ZM108.186 26.85C106.936 22.8 102.786 22.9 99.4859 23.55C95.2859 24.35 91.0859 26.55 91.0859 31.3C91.0859 35.2 94.1359 37.45 97.8359 37.1C103.886 36.45 109.836 32.3 108.186 26.85ZM140.047 34.95C140.047 36.4 139.647 37.85 138.247 37.95C136.797 38.05 136.297 37.15 136.297 35.2C136.297 32.2 136.297 25.4 136.247 20.9C136.147 14.7 132.397 11.7 128.947 12C122.297 12.55 120.497 16.65 120.647 22.6C120.647 26.4 120.647 31.75 120.647 35.1C120.647 37 120.247 37.9 118.897 37.95C117.447 37.95 116.847 36.9 116.847 35.1C116.847 29.4 116.797 19.65 116.847 14.15C116.847 12.7 117.547 10.75 119.097 10.95C121.097 11.25 121.447 12.25 123.097 12.3C126.347 12.4 127.047 10.7 131.597 10.2C136.997 9.65 139.997 13.75 140.047 18.8C140.097 23 140.047 30.95 140.047 34.95ZM167.791 16.85C168.241 18.1 167.541 18.75 166.791 18.85C165.241 19.05 164.591 18.45 163.791 17C162.691 15.1 161.191 12.05 157.291 12.05C152.391 12.05 148.441 16.1 148.441 24.15C148.441 33 152.841 36.95 157.141 36.95C160.991 36.95 163.041 32.8 163.891 30.95C164.391 29.85 164.891 29.05 166.641 29.25C167.741 29.45 168.091 30.6 167.441 32.05C165.341 36.6 162.041 38.65 156.891 38.65C149.241 38.65 144.741 33.95 144.741 24.7C144.691 17.15 148.141 10.2 157.141 10.2C162.141 10.15 166.441 12.65 167.791 16.85ZM194.302 19.5C194.352 20.95 193.652 22.55 191.052 23.45C183.852 25.9 173.302 22.85 173.752 28.6C174.002 32.65 177.552 37.2 183.452 37.2C186.802 37.2 189.552 34.25 190.502 32.4C191.052 31.55 191.852 31 192.502 31.35C193.302 31.65 193.652 32.4 192.852 33.9C190.952 37.1 187.252 38.65 182.952 38.65C174.402 38.6 170.452 32.85 170.502 23.75C170.502 15.8 174.902 10.2 182.702 10.2C188.802 10.15 193.852 13.65 194.302 19.5ZM190.052 21.1C192.002 18 188.952 10.85 182.602 11.05C176.052 11.15 173.652 17.05 175.002 20.8C176.052 23.95 180.202 24.05 182.702 24.05C185.002 24.05 188.302 23.8 190.052 21.1Z" fill="#18181A"/>
</svg>
